<svg width="480" height="480" viewBox="0 0 480 480" fill="none" xmlns="http://www.w3.org/2000/svg">
<rect width="480" height="480" rx="114.844" fill="#81D6CB"/>
<rect width="480" height="480" rx="114.844" fill="url(#paint0_linear_1_146)"/>
<g opacity="0.3" filter="url(#filter0_if_1_146)">
<path d="M382.969 238.701C382.969 315.835 301.512 400.979 246.168 425.034C244.137 425.917 242.205 423.638 243.172 421.646C250.911 405.692 254.977 383.651 240 383.651C161.041 383.651 97.0312 318.755 97.0312 238.701C97.0312 158.647 161.041 93.75 240 93.75C318.959 93.75 382.969 158.647 382.969 238.701Z" fill="url(#paint1_linear_1_146)"/>
<path d="M382.969 238.701C382.969 315.835 301.512 400.979 246.168 425.034C244.137 425.917 242.205 423.638 243.172 421.646C250.911 405.692 254.977 383.651 240 383.651C161.041 383.651 97.0312 318.755 97.0312 238.701C97.0312 158.647 161.041 93.75 240 93.75C318.959 93.75 382.969 158.647 382.969 238.701Z" fill="url(#paint2_radial_1_146)" fill-opacity="0.8"/>
<path d="M382.969 238.701C382.969 315.835 301.512 400.979 246.168 425.034C244.137 425.917 242.205 423.638 243.172 421.646C250.911 405.692 254.977 383.651 240 383.651C161.041 383.651 97.0312 318.755 97.0312 238.701C97.0312 158.647 161.041 93.75 240 93.75C318.959 93.75 382.969 158.647 382.969 238.701Z" fill="url(#paint3_radial_1_146)" fill-opacity="0.8"/>
<path d="M382.969 238.701C382.969 315.835 301.512 400.979 246.168 425.034C244.137 425.917 242.205 423.638 243.172 421.646C250.911 405.692 254.977 383.651 240 383.651C161.041 383.651 97.0312 318.755 97.0312 238.701C97.0312 158.647 161.041 93.75 240 93.75C318.959 93.75 382.969 158.647 382.969 238.701Z" fill="url(#paint4_radial_1_146)" fill-opacity="0.8"/>
<path d="M382.969 238.701C382.969 315.835 301.512 400.979 246.168 425.034C244.137 425.917 242.205 423.638 243.172 421.646C250.911 405.692 254.977 383.651 240 383.651C161.041 383.651 97.0312 318.755 97.0312 238.701C97.0312 158.647 161.041 93.75 240 93.75C318.959 93.75 382.969 158.647 382.969 238.701Z" fill="url(#paint5_linear_1_146)"/>
<path d="M382.969 238.701C382.969 315.835 301.512 400.979 246.168 425.034C244.137 425.917 242.205 423.638 243.172 421.646C250.911 405.692 254.977 383.651 240 383.651C161.041 383.651 97.0312 318.755 97.0312 238.701C97.0312 158.647 161.041 93.75 240 93.75C318.959 93.75 382.969 158.647 382.969 238.701Z" fill="url(#paint6_radial_1_146)" fill-opacity="0.8"/>
<path d="M382.969 238.701C382.969 315.835 301.512 400.979 246.168 425.034C244.137 425.917 242.205 423.638 243.172 421.646C250.911 405.692 254.977 383.651 240 383.651C161.041 383.651 97.0312 318.755 97.0312 238.701C97.0312 158.647 161.041 93.75 240 93.75C318.959 93.75 382.969 158.647 382.969 238.701Z" fill="url(#paint7_radial_1_146)" fill-opacity="0.8"/>
<path d="M382.969 238.701C382.969 315.835 301.512 400.979 246.168 425.034C244.137 425.917 242.205 423.638 243.172 421.646C250.911 405.692 254.977 383.651 240 383.651C161.041 383.651 97.0312 318.755 97.0312 238.701C97.0312 158.647 161.041 93.75 240 93.75C318.959 93.75 382.969 158.647 382.969 238.701Z" fill="url(#paint8_radial_1_146)" fill-opacity="0.8"/>
</g>
<g filter="url(#filter1_i_1_146)">
<path d="M382.969 224.638C382.969 301.772 301.512 386.917 246.168 410.972C244.137 411.855 242.205 409.576 243.172 407.583C250.911 391.629 254.977 369.589 240 369.589C161.041 369.589 97.0312 304.692 97.0312 224.638C97.0312 144.584 161.041 79.6875 240 79.6875C318.959 79.6875 382.969 144.584 382.969 224.638Z" fill="url(#paint9_linear_1_146)"/>
<path d="M382.969 224.638C382.969 301.772 301.512 386.917 246.168 410.972C244.137 411.855 242.205 409.576 243.172 407.583C250.911 391.629 254.977 369.589 240 369.589C161.041 369.589 97.0312 304.692 97.0312 224.638C97.0312 144.584 161.041 79.6875 240 79.6875C318.959 79.6875 382.969 144.584 382.969 224.638Z" fill="url(#paint10_radial_1_146)" fill-opacity="0.8"/>
<path d="M382.969 224.638C382.969 301.772 301.512 386.917 246.168 410.972C244.137 411.855 242.205 409.576 243.172 407.583C250.911 391.629 254.977 369.589 240 369.589C161.041 369.589 97.0312 304.692 97.0312 224.638C97.0312 144.584 161.041 79.6875 240 79.6875C318.959 79.6875 382.969 144.584 382.969 224.638Z" fill="url(#paint11_radial_1_146)" fill-opacity="0.8"/>
<path d="M382.969 224.638C382.969 301.772 301.512 386.917 246.168 410.972C244.137 411.855 242.205 409.576 243.172 407.583C250.911 391.629 254.977 369.589 240 369.589C161.041 369.589 97.0312 304.692 97.0312 224.638C97.0312 144.584 161.041 79.6875 240 79.6875C318.959 79.6875 382.969 144.584 382.969 224.638Z" fill="url(#paint12_radial_1_146)" fill-opacity="0.8"/>
<path d="M382.969 224.638C382.969 301.772 301.512 386.917 246.168 410.972C244.137 411.855 242.205 409.576 243.172 407.583C250.911 391.629 254.977 369.589 240 369.589C161.041 369.589 97.0312 304.692 97.0312 224.638C97.0312 144.584 161.041 79.6875 240 79.6875C318.959 79.6875 382.969 144.584 382.969 224.638Z" fill="url(#paint13_linear_1_146)"/>
<path d="M382.969 224.638C382.969 301.772 301.512 386.917 246.168 410.972C244.137 411.855 242.205 409.576 243.172 407.583C250.911 391.629 254.977 369.589 240 369.589C161.041 369.589 97.0312 304.692 97.0312 224.638C97.0312 144.584 161.041 79.6875 240 79.6875C318.959 79.6875 382.969 144.584 382.969 224.638Z" fill="url(#paint14_radial_1_146)" fill-opacity="0.8"/>
<path d="M382.969 224.638C382.969 301.772 301.512 386.917 246.168 410.972C244.137 411.855 242.205 409.576 243.172 407.583C250.911 391.629 254.977 369.589 240 369.589C161.041 369.589 97.0312 304.692 97.0312 224.638C97.0312 144.584 161.041 79.6875 240 79.6875C318.959 79.6875 382.969 144.584 382.969 224.638Z" fill="url(#paint15_radial_1_146)" fill-opacity="0.8"/>
<path d="M382.969 224.638C382.969 301.772 301.512 386.917 246.168 410.972C244.137 411.855 242.205 409.576 243.172 407.583C250.911 391.629 254.977 369.589 240 369.589C161.041 369.589 97.0312 304.692 97.0312 224.638C97.0312 144.584 161.041 79.6875 240 79.6875C318.959 79.6875 382.969 144.584 382.969 224.638Z" fill="url(#paint16_radial_1_146)" fill-opacity="0.8"/>
</g>
<defs>
<filter id="filter0_if_1_146" x="76.9132" y="73.6319" width="326.174" height="371.716" filterUnits="userSpaceOnUse" color-interpolation-filters="sRGB">
<feFlood flood-opacity="0" result="BackgroundImageFix"/>
<feBlend mode="normal" in="SourceGraphic" in2="BackgroundImageFix" result="shape"/>
<feColorMatrix in="SourceAlpha" type="matrix" values="0 0 0 0 0 0 0 0 0 0 0 0 0 0 0 0 0 0 127 0" result="hardAlpha"/>
<feOffset dx="-5.96091" dy="-0.372557"/>
<feGaussianBlur stdDeviation="3.72557"/>
<feComposite in2="hardAlpha" operator="arithmetic" k2="-1" k3="1"/>
<feColorMatrix type="matrix" values="0 0 0 0 0.80575 0 0 0 0 0.7375 0 0 0 0 1 0 0 0 0.31 0"/>
<feBlend mode="normal" in2="shape" result="effect1_innerShadow_1_146"/>
<feGaussianBlur stdDeviation="10.059" result="effect2_foregroundBlur_1_146"/>
</filter>
<filter id="filter1_i_1_146" x="81.3961" y="79.6875" width="301.573" height="331.48" filterUnits="userSpaceOnUse" color-interpolation-filters="sRGB">
<feFlood flood-opacity="0" result="BackgroundImageFix"/>
<feBlend mode="normal" in="SourceGraphic" in2="BackgroundImageFix" result="shape"/>
<feColorMatrix in="SourceAlpha" type="matrix" values="0 0 0 0 0 0 0 0 0 0 0 0 0 0 0 0 0 0 127 0" result="hardAlpha"/>
<feOffset dx="-15.6352"/>
<feGaussianBlur stdDeviation="15.6352"/>
<feComposite in2="hardAlpha" operator="arithmetic" k2="-1" k3="1"/>
<feColorMatrix type="matrix" values="0 0 0 0 0.80575 0 0 0 0 0.7375 0 0 0 0 1 0 0 0 0.3 0"/>
<feBlend mode="normal" in2="shape" result="effect1_innerShadow_1_146"/>
</filter>
<linearGradient id="paint0_linear_1_146" x1="480" y1="480" x2="0" y2="0" gradientUnits="userSpaceOnUse">
<stop stop-color="#F4FFF0" stop-opacity="0"/>
<stop offset="1" stop-color="#F4FFF0"/>
</linearGradient>
<linearGradient id="paint1_linear_1_146" x1="382.969" y1="58.6821" x2="63.4744" y2="408.287" gradientUnits="userSpaceOnUse">
<stop stop-color="#4D9850"/>
<stop offset="0.527788" stop-color="#64CC71"/>
<stop offset="1" stop-color="#62D573"/>
</linearGradient>
<radialGradient id="paint2_radial_1_146" cx="0" cy="0" r="1" gradientUnits="userSpaceOnUse" gradientTransform="translate(174.574 21.1956) rotate(95.2815) scale(408.037 584.511)">
<stop stop-color="#52B6FF"/>
<stop offset="1" stop-color="#8F41EE" stop-opacity="0"/>
</radialGradient>
<radialGradient id="paint3_radial_1_146" cx="0" cy="0" r="1" gradientUnits="userSpaceOnUse" gradientTransform="translate(173.362 113.098) rotate(65.6913) scale(161.879 422.517)">
<stop stop-color="#9DD6FF"/>
<stop offset="1" stop-color="#8F41EE" stop-opacity="0"/>
</radialGradient>
<radialGradient id="paint4_radial_1_146" cx="0" cy="0" r="1" gradientUnits="userSpaceOnUse" gradientTransform="translate(518.668 348.899) rotate(140.041) scale(256.069 365.992)">
<stop stop-color="#00C5AD"/>
<stop offset="1" stop-color="#00C5AD" stop-opacity="0"/>
</radialGradient>
<linearGradient id="paint5_linear_1_146" x1="382.969" y1="58.6821" x2="63.4744" y2="408.287" gradientUnits="userSpaceOnUse">
<stop stop-color="#4D9850"/>
<stop offset="0.527788" stop-color="#64CC71"/>
<stop offset="1" stop-color="#62D573"/>
</linearGradient>
<radialGradient id="paint6_radial_1_146" cx="0" cy="0" r="1" gradientUnits="userSpaceOnUse" gradientTransform="translate(174.574 21.1956) rotate(95.2815) scale(408.037 584.511)">
<stop stop-color="#52B6FF"/>
<stop offset="1" stop-color="#8F41EE" stop-opacity="0"/>
</radialGradient>
<radialGradient id="paint7_radial_1_146" cx="0" cy="0" r="1" gradientUnits="userSpaceOnUse" gradientTransform="translate(173.362 113.098) rotate(65.6913) scale(161.879 422.517)">
<stop stop-color="#9DD6FF"/>
<stop offset="1" stop-color="#8F41EE" stop-opacity="0"/>
</radialGradient>
<radialGradient id="paint8_radial_1_146" cx="0" cy="0" r="1" gradientUnits="userSpaceOnUse" gradientTransform="translate(518.668 348.899) rotate(140.041) scale(256.069 365.992)">
<stop stop-color="#00C5AD"/>
<stop offset="1" stop-color="#00C5AD" stop-opacity="0"/>
</radialGradient>
<linearGradient id="paint9_linear_1_146" x1="382.969" y1="44.6196" x2="63.4744" y2="394.225" gradientUnits="userSpaceOnUse">
<stop stop-color="#75C8BE"/>
<stop offset="0.527788" stop-color="#5FB6AB"/>
<stop offset="1" stop-color="#49B1A5"/>
</linearGradient>
<radialGradient id="paint10_radial_1_146" cx="0" cy="0" r="1" gradientUnits="userSpaceOnUse" gradientTransform="translate(174.574 7.13315) rotate(95.2815) scale(408.037 584.511)">
<stop stop-color="#9AA994"/>
<stop offset="1" stop-color="#43AD57" stop-opacity="0"/>
</radialGradient>
<radialGradient id="paint11_radial_1_146" cx="0" cy="0" r="1" gradientUnits="userSpaceOnUse" gradientTransform="translate(173.362 99.0353) rotate(65.6913) scale(161.879 422.517)">
<stop stop-color="#64FFEC"/>
<stop offset="1" stop-color="#00C5AD" stop-opacity="0"/>
</radialGradient>
<radialGradient id="paint12_radial_1_146" cx="0" cy="0" r="1" gradientUnits="userSpaceOnUse" gradientTransform="translate(518.668 334.837) rotate(140.041) scale(256.069 365.992)">
<stop stop-color="#2FA99A"/>
<stop offset="1" stop-color="#0F2813" stop-opacity="0"/>
</radialGradient>
<linearGradient id="paint13_linear_1_146" x1="382.969" y1="44.6196" x2="63.4744" y2="394.225" gradientUnits="userSpaceOnUse">
<stop stop-color="#75C8BE"/>
<stop offset="0.527788" stop-color="#5FB6AB"/>
<stop offset="1" stop-color="#49B1A5"/>
</linearGradient>
<radialGradient id="paint14_radial_1_146" cx="0" cy="0" r="1" gradientUnits="userSpaceOnUse" gradientTransform="translate(174.574 7.13315) rotate(95.2815) scale(408.037 584.511)">
<stop stop-color="#9AA994"/>
<stop offset="1" stop-color="#43AD57" stop-opacity="0"/>
</radialGradient>
<radialGradient id="paint15_radial_1_146" cx="0" cy="0" r="1" gradientUnits="userSpaceOnUse" gradientTransform="translate(173.362 99.0353) rotate(65.6913) scale(161.879 422.517)">
<stop stop-color="#64FFEC"/>
<stop offset="1" stop-color="#00C5AD" stop-opacity="0"/>
</radialGradient>
<radialGradient id="paint16_radial_1_146" cx="0" cy="0" r="1" gradientUnits="userSpaceOnUse" gradientTransform="translate(518.668 334.837) rotate(140.041) scale(256.069 365.992)">
<stop stop-color="#2FA99A"/>
<stop offset="1" stop-color="#0F2813" stop-opacity="0"/>
</radialGradient>
</defs>
</svg>
